HIERARCHY
ROOT hip
{
	OFFSET 0.000000 0.000000 0.000000 
	CHANNELS 6 Xposition Yposition Zposition Xrotation Zrotation Yrotation
	JOINT abdomen
	{
		OFFSET 0.000000 3.402643 0.000000 
		CHANNELS 3 Xrotation Zrotation Yrotation
		JOINT chest
		{
			OFFSET 0.000000 8.438565 -0.680529 
			CHANNELS 3 Xrotation Zrotation Yrotation
			JOINT neck
			{
				OFFSET 0.000000 10.207942 -0.272212 
				CHANNELS 3 Xrotation Zrotation Yrotation
				JOINT head
				{
					OFFSET 0.000000 3.130431 0.000000 
					CHANNELS 3 Xrotation Zrotation Yrotation
					End Site
					{
						OFFSET 0.000000 3.130435 0.000000 
					}
				}
			}
			JOINT lCollar
			{
				OFFSET 3.470700 6.669187 -0.816635 
				CHANNELS 3 Yrotation Zrotation Xrotation
				JOINT lShldr
				{
					OFFSET 3.198488 0.000000 0.000000 
					CHANNELS 3 Zrotation Yrotation Xrotation
					JOINT lForeArm
					{
						OFFSET 10.139888 0.000000 0.000000 
						CHANNELS 3 Yrotation Zrotation Xrotation
						JOINT lHand
						{
							OFFSET 8.370511 0.000000 0.000000 
							CHANNELS 3 Zrotation Yrotation Xrotation
							End Site
							{
								OFFSET 4.083176 0.000000 0.000000 
							}
						}
					}
				}
			}
			JOINT rCollar
			{
				OFFSET -3.470700 6.669187 -0.816635 
				CHANNELS 3 Yrotation Zrotation Xrotation
				JOINT rShldr
				{
					OFFSET -3.198488 0.000000 0.000000 
					CHANNELS 3 Zrotation Yrotation Xrotation
					JOINT rForeArm
					{
						OFFSET -10.139888 0.000000 0.000000 
						CHANNELS 3 Yrotation Zrotation Xrotation
						JOINT rHand
						{
							OFFSET -8.370511 0.000000 0.000000 
							CHANNELS 3 Zrotation Yrotation Xrotation
							End Site
							{
								OFFSET -4.083176 0.000000 0.000000 
							}
						}
					}
				}
			}
		}
	}
	JOINT lThigh
	{
		OFFSET 5.308129 -1.633274 1.361059 
		CHANNELS 3 Xrotation Zrotation Yrotation
		JOINT lShin
		{
			OFFSET -2.041588 -20.007561 0.000000 
			CHANNELS 3 Xrotation Zrotation Yrotation
			JOINT lFoot
			{
				OFFSET 0.000000 -19.190928 -1.224953 
				CHANNELS 3 Xrotation Yrotation Zrotation
				End Site
				{
					OFFSET 0.000000 -2.449906 4.627600 
				}
			}
		}
	}
	JOINT rThigh
	{
		OFFSET -5.308129 -1.633274 1.361059 
		CHANNELS 3 Xrotation Zrotation Yrotation
		JOINT rShin
		{
			OFFSET 2.041588 -20.007561 0.000000 
			CHANNELS 3 Xrotation Zrotation Yrotation
			JOINT rFoot
			{
				OFFSET 0.000000 -19.190928 -1.224953 
				CHANNELS 3 Xrotation Yrotation Zrotation
				End Site
				{
					OFFSET 0.000000 -2.449906 4.627600 
				}
			}
		}
	}
}
MOTION
Frames: 14
Frame Time: 0.033333
-0.256480 47.657562 3.319911 32.801544 4.080168 5.864611 0.000000 0.000000 0.000000 16.941092 -3.726148 4.981112 -16.343477 -12.517967 -0.921528 -19.315477 4.553406 -25.181955 17.895950 24.736282 16.287453 -111.732903 -29.416754 2.302185 -46.306484 -13.945580 24.960009 0.483105 7.304566 50.950115 13.203340 -27.961184 25.000000 65.513000 55.366032 56.556030 22.859095 -30.406212 -12.968707 26.675793 -1.540691 -5.082589 -28.766619 3.045805 15.710602 48.573788 10.526248 0.226310 -1.219488 -5.935009 -17.816536 -37.146664 -6.278755 0.774436 13.560839 4.741951 1.246860 -2.862241 -17.081514 20.937382 
-0.450583 47.761761 3.189587 32.826359 3.988105 5.100668 0.000000 0.000000 0.000000 17.247704 -3.823662 4.942126 -16.601171 -12.615542 -0.942729 -19.262150 4.868204 -24.370575 19.042736 23.780342 16.043470 -108.762383 -25.708368 0.645211 -45.190376 -11.314332 26.152859 -0.414366 9.165304 50.541775 14.316845 -27.815676 25.000000 58.042332 59.181152 50.337437 21.451731 -29.879192 -16.647352 25.496521 -0.928285 -5.143267 -32.845993 3.396437 15.152778 53.260826 11.892130 0.332336 -0.102430 -3.984482 -17.258936 -35.718067 -4.960358 1.090919 13.210836 4.644912 1.219015 -3.901951 -16.872511 20.292236 
-0.594415 47.850319 3.093130 32.348808 4.092113 3.897004 0.000000 0.000000 0.000000 17.904905 -4.096679 4.846022 -16.956657 -12.830321 -0.952278 -19.135080 5.442155 -23.205982 20.561108 22.615454 15.736979 -105.361748 -21.568199 -1.237302 -44.651924 -10.004414 25.824812 -1.269100 10.541842 50.206570 15.792936 -27.623600 25.000000 48.992306 62.702782 42.638756 19.394117 -28.996349 -21.126350 24.106327 -0.287651 -5.271365 -36.068050 3.767309 14.685197 56.129360 12.505999 0.305930 0.753114 -2.699630 -17.107502 -33.821262 -3.583316 1.391679 13.020444 4.506702 1.181384 -4.964022 -16.189398 19.889427 
-0.652798 47.923111 3.004407 31.737711 4.575074 2.684386 0.000000 0.000000 0.000000 18.541059 -4.701117 4.683444 -17.204472 -13.054862 -0.964003 -18.932997 6.155052 -22.135475 22.147274 21.625622 15.379730 -102.326027 -17.015682 -2.966274 -44.778645 -9.571852 24.610765 -2.666118 11.364992 49.732460 17.207220 -27.414633 25.000000 38.389885 65.355820 33.634941 17.023474 -27.783125 -25.753408 22.487883 0.321228 -5.477848 -38.649040 3.700235 14.195295 56.763443 12.378773 0.287561 1.419867 -2.460518 -17.083471 -31.900545 -2.724177 1.566828 13.143016 4.449991 1.175308 -5.963996 -15.149937 19.885548 
-0.670040 47.983105 2.919920 30.858265 4.647801 0.950481 0.000000 0.000000 0.000000 19.238016 -4.857382 4.606401 -17.527672 -13.298892 -0.985278 -18.595867 7.078702 -20.435820 24.432779 20.416307 14.872520 -99.339287 -11.880040 -4.758294 -45.545803 -9.967995 22.786942 -4.550286 12.184941 49.096771 19.099638 -27.114290 25.000000 24.896341 67.365433 22.070309 14.257813 -26.218702 -30.683388 20.879866 0.831784 -5.713267 -40.696239 4.284378 13.959172 55.496571 11.763069 0.199274 1.696508 -3.257992 -16.921394 -29.652590 -1.239951 1.908090 13.173419 4.264945 1.120711 -6.995287 -14.139800 19.699789 
-0.634272 48.030952 2.841872 29.902115 4.442283 -1.263545 0.000000 0.000000 0.000000 19.876411 -4.701701 4.595051 -17.991081 -13.747922 -1.016088 -18.148294 8.289927 -18.411526 27.233736 18.989128 14.325133 -96.643341 -6.711053 -6.475846 -46.574684 -11.000971 20.641548 -6.004281 13.133385 48.510578 21.263367 -26.743681 25.000000 9.407990 68.095024 9.051704 11.301647 -24.579855 -36.016476 19.627625 1.234457 -5.895279 -42.222889 5.418859 13.958879 52.898560 10.661646 0.070616 1.732258 -4.420588 -16.855089 -27.233881 0.663791 2.354417 13.100653 3.904540 1.032130 -7.972781 -12.999520 19.465216 
-0.536906 48.058083 2.755137 29.184984 3.956429 -3.739085 0.000000 0.000000 0.000000 20.230629 -4.224197 4.680437 -18.573170 -14.343312 -1.070625 -17.642374 9.658839 -15.973613 30.143705 17.504980 13.871874 -94.380692 -1.729393 -8.075424 -47.766762 -12.589983 18.268896 -6.309746 14.135801 48.203091 23.346918 -26.342991 25.000000 -5.985728 67.225586 -3.031692 8.458770 -22.895021 -42.020561 18.737864 1.692598 -6.006107 -43.414841 7.010602 14.156630 49.147919 9.119475 -0.131400 1.618155 -5.657241 -17.006424 -24.920660 2.822098 2.880398 12.884691 3.443109 0.933990 -8.850780 -11.861066 19.361290 
-0.368542 48.051502 2.648622 28.834406 3.270755 -6.367639 0.000000 0.000000 0.000000 20.235912 -3.434940 4.851995 -19.221682 -14.977725 -1.122869 -17.105648 11.101163 -13.239239 33.029911 16.195107 13.469632 -92.654053 3.212481 -9.504210 -49.058678 -14.536303 16.077957 -5.711037 14.849505 48.234692 25.086750 -25.990093 25.000000 -19.489275 64.960083 -12.100606 5.735028 -21.097410 -48.848801 18.081099 2.328191 -6.062006 -44.286064 8.876799 14.515985 44.149723 7.000296 -0.332779 1.398510 -6.442766 -17.186216 -22.810930 5.117313 3.459981 12.620153 2.886783 0.786699 -9.713997 -10.706336 19.371418 
-0.126040 48.009590 2.571059 28.484882 2.622639 -9.130673 0.000000 0.000000 0.000000 20.253199 -2.685049 5.005476 -19.847778 -15.485284 -1.156298 -16.522556 12.447043 -10.351444 35.680408 15.025373 13.170222 -91.482948 7.840094 -10.712501 -50.230942 -16.231493 14.314093 -5.332195 15.312280 48.236076 26.561834 -25.674860 25.000000 -30.369436 61.641289 -17.129700 3.075851 -19.155748 -56.554737 17.610775 3.210474 -6.029220 -44.269951 10.806481 15.087915 38.149513 4.216187 -0.641353 1.042964 -6.084999 -17.778870 -20.446609 7.226020 4.007422 12.257736 2.330249 0.655664 -10.435298 -9.297783 19.881435 
0.168741 47.933838 2.559872 27.879276 2.044879 -11.911937 0.000000 0.000000 0.000000 20.578905 -2.032815 5.139712 -20.465605 -15.895192 -1.189821 -15.946033 13.613517 -7.625617 37.832508 13.851188 13.168007 -90.693550 11.666480 -11.732837 -51.136662 -17.291576 13.222647 -5.673050 15.722696 48.068832 27.784262 -25.402155 25.000000 -38.676060 57.967236 -18.427769 0.564327 -17.093510 -64.729576 17.336460 4.170387 -5.946874 -43.046135 12.597230 15.918981 31.720478 1.218702 -0.959802 0.623503 -4.532014 -19.038803 -17.605848 8.973987 4.382405 11.857467 1.705739 0.520230 -11.122827 -7.229721 20.665865 
0.492781 47.814556 2.639072 26.934193 1.369306 -14.759950 0.000000 0.000000 0.000000 21.285267 -1.429582 5.226146 -21.092487 -16.129461 -1.201932 -15.299405 14.655262 -4.914550 39.575268 12.774485 13.316660 -90.335312 14.684637 -12.428121 -51.699226 -17.707802 12.907505 -6.591045 16.325411 47.756367 28.849083 -25.155727 25.000000 -45.169056 54.415565 -17.235004 -1.706523 -15.022942 -72.878403 17.160582 4.851738 -5.892961 -40.628490 14.184741 16.955975 25.453831 -1.251332 -1.181724 0.119097 -2.365922 -20.896502 -14.165004 10.493859 4.705295 11.472219 1.072027 0.369506 -12.214766 -4.836375 20.798721 
0.837864 47.646652 2.798401 25.688227 0.605451 -17.481422 0.000000 0.000000 0.000000 22.338631 -1.011358 5.254637 -21.637825 -16.070824 -1.211306 -14.807150 15.573228 -2.371634 40.813732 11.888358 13.587682 -90.318176 16.620638 -12.765350 -51.757423 -17.584656 13.238810 -7.821393 17.093832 47.359077 29.696253 -24.955925 25.000000 -49.833782 51.668949 -15.161929 -3.542922 -13.503525 -79.707024 16.918917 5.230904 -5.889983 -37.438950 15.369097 18.026468 20.182266 -2.737906 -1.180366 -0.302702 -0.328455 -22.656157 -10.153746 11.647230 4.910904 10.969631 0.476263 0.162680 -13.378709 -2.428828 21.253950 
1.149713 47.460003 2.940099 25.230947 -0.267068 -19.433830 0.000000 0.000000 0.000000 22.759014 -0.466707 5.351703 -22.063517 -15.739032 -1.177751 -14.495953 16.268566 -0.639842 41.343151 11.501138 13.722221 -90.649651 17.411121 -12.625248 -51.609406 -16.733160 15.283509 -10.042241 17.423176 46.707333 30.199503 -24.834314 25.000000 -52.089180 50.372272 -13.926234 -4.497967 -13.259932 -83.290810 16.521408 5.565205 -5.944619 -35.484505 16.207541 18.687979 17.423681 -3.138116 -1.069664 -0.148121 1.036062 -22.842064 -6.991505 12.655668 5.095353 10.397374 -0.109254 -0.001876 -14.255848 -0.477718 22.444611 
1.391927 47.273685 3.061135 26.205410 -1.317196 -20.503838 0.000000 0.000000 0.000000 21.839848 0.534514 5.635066 -22.280674 -15.212005 -1.134857 -14.194427 16.679531 0.256291 41.214272 11.563730 13.720370 -91.100723 17.265625 -12.230994 -51.471653 -15.589341 18.286659 -12.115506 18.068298 46.090607 30.582029 -24.723509 25.000000 -51.471291 50.904114 -14.728360 -4.456043 -14.986717 -82.240150 16.000648 5.825838 -6.054036 -35.839523 17.265333 18.996058 17.186571 -3.017447 -1.037537 0.867762 1.334249 -21.039961 -5.370318 13.943588 5.447762 10.130025 -0.626621 -0.175265 -15.244441 0.491077 23.439386 
